<?xml version="1.0" standalone="no"?>
<!DOCTYPE svg PUBLIC "-//W3C//DTD SVG 1.1//EN" "http://www.w3.org/Graphics/SVG/1.1/DTD/svg11.dtd" >
<svg xmlns="http://www.w3.org/2000/svg">
<metadata></metadata>
<defs>
<font id="willowheadregular" horiz-adv-x="2269" >
<font-face units-per-em="2048" ascent="1638" descent="-410" />
<missing-glyph horiz-adv-x="500" />
<glyph unicode="&#xd;" horiz-adv-x="1224" />
<glyph unicode="!" horiz-adv-x="835" d="M82 0v336h672v-336h-672zM82 504v1175h672v-1175h-672z" />
<glyph unicode="&#x22;" horiz-adv-x="704" d="M82 1165v514h215v-514h-215zM410 1165v514h213v-514h-213z" />
<glyph unicode="#" horiz-adv-x="1486" d="M82 369v295h240v331h-240v293h240v391h292v-391h271v391h293v-391h227v-293h-227v-331h227v-295h-227v-369h-293v369h-271v-369h-292v369h-240zM614 664h271v331h-271v-331z" />
<glyph unicode="$" horiz-adv-x="1259" d="M82 240v354h412v-166h311v307h-723v723h221v223h227v-223h183v223h227v-223h238v-330h-394v142h-311v-285h705v-745h-238v-240h-227v240h-183v-240h-227v240h-221z" />
<glyph unicode="%" horiz-adv-x="1382" d="M72 979q0 94 65.5 158.5t161.5 64.5q92 0 157.5 -65.5t65.5 -157.5t-66.5 -159.5t-156.5 -67.5q-92 0 -159.5 66.5t-67.5 160.5zM201 -20l594 1175h335l-577 -1175h-352zM850 190q0 94 65.5 159t159.5 65t159.5 -65.5t65.5 -158.5q0 -94 -67.5 -160.5t-157.5 -66.5 t-157.5 66.5t-67.5 160.5z" />
<glyph unicode="&#x26;" horiz-adv-x="1562" d="M82 475q0 276 344 402q-82 102 -105.5 158.5t-23.5 119.5q0 145 116.5 235.5t311.5 90.5t303.5 -97.5t108.5 -246.5q0 -227 -260 -336l194 -211q84 90 123 272l287 -39q-47 -231 -228 -440q63 -66 144 -66q29 0 84 7v-246q-76 -20 -140 -21q-186 0 -299 133 q-190 -152 -434 -151q-266 0 -396 133t-130 303zM428 500q0 -82 58.5 -143.5t156.5 -61.5q127 0 231 84l-284 315q-162 -57 -162 -194zM602 1165q0 -57 76 -135l59 -59q147 55 148 162q0 55 -40 96t-112 41q-57 0 -94 -30t-37 -75z" />
<glyph unicode="'" horiz-adv-x="468" d="M82 1126v531h305v-531h-305z" />
<glyph unicode="(" horiz-adv-x="729" d="M82 94v1469l227 227h338v-293h-176l-94 -94v-1145l96 -96h174v-293h-340z" />
<glyph unicode=")" horiz-adv-x="727" d="M82 -131v293h174l96 96v1145l-94 94h-176v293h336l227 -227v-1469l-225 -225h-338z" />
<glyph unicode="*" horiz-adv-x="1052" d="M82 954l53 158l311 -119v340h170v-340l297 117l58 -158l-305 -118l180 -246l-131 -105l-185 248l-190 -254l-135 101l194 253z" />
<glyph unicode="+" horiz-adv-x="1177" d="M82 487v306h354v358h303v-358h357v-306h-357v-340h-303v340h-354z" />
<glyph unicode="," horiz-adv-x="409" d="M82 -41v250h246v-211l-62 -225h-141l37 186h-80z" />
<glyph unicode="-" horiz-adv-x="860" d="M82 471v246h696v-246h-696z" />
<glyph unicode="." horiz-adv-x="471" d="M82 -41v291h307v-291h-307z" />
<glyph unicode="/" horiz-adv-x="1239" d="M82 -41l553 1720h522l-534 -1720h-541z" />
<glyph unicode="0" horiz-adv-x="2371" d="M82 336v1007q0 141 97 238.5t239 97.5h1515q141 0 238.5 -97t97.5 -239v-1007q0 -141 -97 -238.5t-239 -97.5h-1515q-141 0 -238.5 97.5t-97.5 238.5zM715 403q0 -68 67 -67h795q65 -1 65 67v877q0 68 -65 68h-795q-68 0 -67 -68v-877z" />
<glyph unicode="1" horiz-adv-x="1429" d="M82 0v336h399v682h-354v199l465 462h479v-1343h277v-336h-1266z" />
<glyph unicode="2" horiz-adv-x="2330" d="M82 0v672q0 141 97 238.5t239 97.5h1132q68 0 68 67v201q0 68 -68 67h-1468v336h1831q141 0 238.5 -97t97.5 -239v-335q0 -141 -97.5 -238.5t-238.5 -97.5h-1133q-68 0 -67 -68v-268h1536v-336h-2167z" />
<glyph unicode="3" horiz-adv-x="2351" d="M82 0v336h1489q68 0 67 67v201q0 68 -67 68h-899l671 671h-1261v336h2187l-672 -671h336q141 0 238.5 -97.5t97.5 -238.5v-336q0 -141 -97 -238.5t-239 -97.5h-1851z" />
<glyph unicode="4" horiz-adv-x="2351" d="M82 1008v671h631v-604q0 -68 67 -67h858v671h631v-1679h-631v672h-1220q-141 0 -238.5 97t-97.5 239z" />
<glyph unicode="5" horiz-adv-x="2351" d="M82 0v336h1489q68 0 67 67v201q0 68 -67 68h-1153q-141 0 -238.5 97t-97.5 239v671h2187v-336h-1556v-268q0 -68 67 -67h1153q141 0 238.5 -97.5t97.5 -238.5v-336q0 -141 -97 -238.5t-239 -97.5h-1851z" />
<glyph unicode="6" horiz-adv-x="2351" d="M82 336v1007q0 141 97 238.5t239 97.5h1851v-336h-1489q-68 0 -67 -67v-268h1220q141 0 238.5 -97.5t97.5 -238.5v-336q0 -141 -97 -238.5t-239 -97.5h-1515q-141 0 -238.5 97.5t-97.5 238.5zM713 403q0 -68 67 -67h791q67 -1 67 67v201q0 68 -67 68h-858v-269z" />
<glyph unicode="7" horiz-adv-x="2146" d="M82 1343v336h1982l-1003 -1679h-754l832 1343h-1057z" />
<glyph unicode="8" horiz-adv-x="2351" d="M82 336v336q0 53 94 168q-94 115 -94 168v335q0 141 97 238.5t239 97.5h1515q141 0 238.5 -97t97.5 -239v-335q0 -53 -94 -168q94 -115 94 -168v-336q0 -141 -97 -238.5t-239 -97.5h-1515q-141 0 -238.5 97.5t-97.5 238.5zM713 403q0 -68 67 -67h791q67 -1 67 67v201 q0 68 -67 68h-791q-68 0 -67 -68v-201zM713 1075q0 -68 67 -67h791q67 -1 67 67v201q0 68 -67 67h-791q-68 0 -67 -67v-201z" />
<glyph unicode="9" horiz-adv-x="2351" d="M82 0v336h1489q68 0 67 67v269h-1220q-141 0 -238.5 97t-97.5 239v335q0 141 97 238.5t239 97.5h1515q141 0 238.5 -97t97.5 -239v-1007q0 -141 -97 -238.5t-239 -97.5h-1851zM713 1075q0 -68 67 -67h858v268q0 68 -67 67h-791q-68 0 -67 -67v-201z" />
<glyph unicode=":" horiz-adv-x="481" d="M82 205v323h317v-323h-317zM82 866v324h317v-324h-317z" />
<glyph unicode=";" horiz-adv-x="485" d="M82 -4v328h321v-277l-79 -295h-185l47 244h-104zM82 668v327h321v-327h-321z" />
<glyph unicode="&#x3c;" horiz-adv-x="929" d="M82 733v258l766 574v-320l-514 -383l514 -387v-319z" />
<glyph unicode="=" horiz-adv-x="757" d="M82 266v185h594v-185h-594zM82 676v184h594v-184h-594z" />
<glyph unicode="&#x3e;" horiz-adv-x="913" d="M82 74v313l502 375l-502 381v313l749 -567v-254z" />
<glyph unicode="?" horiz-adv-x="1638" d="M41 0v336h590v-336h-590zM41 504v168q0 141 97.5 238.5t238.5 97.5h522q68 0 68 67v201q0 68 -68 67h-858v336h1180q141 0 238 -97t97 -239v-335q0 -141 -97 -238.5t-238 -97.5h-523q-68 0 -67 -68v-100h-590z" />
<glyph unicode="@" horiz-adv-x="1681" d="M82 770q0 229 106.5 416.5t283.5 288t421 100.5q313 0 509.5 -183.5t196.5 -473.5q0 -172 -76.5 -315.5t-224.5 -225.5q-115 -66 -215 -66q-59 0 -97 25.5t-56 83.5q-68 -61 -122 -85t-118 -24q-133 0 -228 101.5t-95 292.5q0 223 121.5 404t304.5 181q70 0 124 -29.5 t109 -105.5l18 105h195l-125 -725q-4 -23 -4 -33q0 -16 10 -25.5t29 -9.5q47 0 104 39q86 53 141.5 157.5t55.5 251.5q0 242 -151.5 382.5t-405.5 140.5q-186 0 -340 -83t-237 -240t-83 -345q0 -295 180.5 -468t467.5 -173q139 0 268 43t246 129h204q-82 -90 -155 -139 q-109 -74 -252 -121t-307 -47q-231 0 -413.5 98t-286 279.5t-103.5 398.5zM575 659q0 -109 52 -170q37 -45 96 -45q63 0 115.5 50.5t90.5 200t38 268.5q0 90 -41 135t-101 45q-66 0 -114 -45q-66 -61 -101 -194.5t-35 -244.5z" />
<glyph unicode="A" d="M82 0v1343q0 141 97 238.5t239 97.5h1433q141 0 238.5 -97t97.5 -239v-1343h-631v672h-843v-672h-631zM713 1008h843v268q0 67 -65 67h-2h-709q-68 0 -67 -67v-268z" />
<glyph unicode="B" d="M82 0v1679h1769q141 0 238.5 -97t97.5 -239v-335q0 -53 -94 -168q94 -115 94 -168v-336q0 -141 -97 -238.5t-239 -97.5h-1769zM713 336h776h2q65 0 65 67v201q0 68 -67 68h-776v-336zM713 1008h776h2q65 0 65 67v201q0 67 -65 67h-2h-776v-335z" />
<glyph unicode="C" horiz-adv-x="2248" d="M82 336v1007q0 141 97 238.5t239 97.5h1749v-336h-1387q-68 0 -67 -67v-873q0 -67 65 -67h2h1387v-336h-1749q-141 0 -238.5 97.5t-97.5 238.5z" />
<glyph unicode="D" d="M82 0v1679h1769q141 0 238.5 -97t97.5 -239v-1007q0 -141 -97 -238.5t-239 -97.5h-1769zM713 336h776h2q65 0 65 67v873q0 67 -65 67h-2h-776v-1007z" />
<glyph unicode="E" d="M82 0v1679h2105v-336h-1474v-335h630v-336h-630v-336h1474v-336h-2105z" />
<glyph unicode="F" d="M82 0v1679h2105v-336h-1474v-335h630v-336h-630v-672h-631z" />
<glyph unicode="G" d="M82 336v1007q0 141 97 238.5t239 97.5h1769v-336h-1407q-68 0 -67 -67v-873q0 -67 65 -67h2h776v336h-507v336h1138v-1008h-1769q-141 0 -238.5 97.5t-97.5 238.5z" />
<glyph unicode="H" d="M82 0v1679h631v-671h843v671h631v-1679h-631v672h-843v-672h-631z" />
<glyph unicode="I" horiz-adv-x="897" d="M154 0v1679h589v-1679h-589z" />
<glyph unicode="J" horiz-adv-x="2023" d="M82 0v336h1161q68 0 68 67v1276h631v-1343q0 -141 -97.5 -238.5t-238.5 -97.5h-1524z" />
<glyph unicode="K" d="M82 0v1679h610v-1679h-610zM696 840l840 839h651l-839 -839l839 -840h-651z" />
<glyph unicode="L" horiz-adv-x="2064" d="M82 0v1679h631v-1343h1269v-336h-1900z" />
<glyph unicode="M" horiz-adv-x="2525" d="M82 0v1679h631l549 -553l550 553h631v-1679h-631v1110l-550 -553l-549 553v-1110h-631z" />
<glyph unicode="N" horiz-adv-x="2310" d="M82 0v1679h631l925 -925v925h590v-1679h-549l-966 975v-975h-631z" />
<glyph unicode="O" d="M82 336v1007q0 141 97 238.5t239 97.5h1433q141 0 238.5 -97t97.5 -239v-1007q0 -141 -97 -238.5t-239 -97.5h-1433q-141 0 -238.5 97.5t-97.5 238.5zM713 403q0 -67 65 -67h2h709h2q65 0 65 67v873q0 67 -65 67h-2h-709q-68 0 -67 -67v-873z" />
<glyph unicode="P" d="M82 0v1679h1769q141 0 238.5 -97t97.5 -239v-335q0 -141 -97 -238.5t-239 -97.5h-1138v-672h-631zM713 1008h776h2q65 0 65 67v201q0 67 -65 67h-2h-776v-335z" />
<glyph unicode="Q" horiz-adv-x="2310" d="M82 336v1007q0 141 97 238.5t239 97.5h1474q141 0 238.5 -97t97.5 -239v-1007q0 -141 -97 -238.5t-239 -97.5h-1474q-141 0 -238.5 97.5t-97.5 238.5zM713 403q0 -67 65 -67h2h207v336h336v-336h207h2q65 0 65 67v873q0 67 -65 67h-2h-750q-68 0 -67 -67v-873z" />
<glyph unicode="R" horiz-adv-x="2248" d="M82 0v1679h1749q141 0 238.5 -97t97.5 -239v-335q0 -141 -97.5 -238.5t-238.5 -97.5h-336l672 -672h-631l-672 672h-151v-672h-631zM713 1008h755h2q66 0 66 67v201q0 67 -66 67h-2h-755v-335z" />
<glyph unicode="S" d="M82 0v336h1407q68 0 67 67v201q0 68 -67 68h-1071q-141 0 -238.5 97t-97.5 239v335q0 141 97 238.5t239 97.5h1769v-336h-1407q-68 0 -67 -67v-201q0 -67 65 -67h2h1071q141 0 238.5 -97.5t97.5 -238.5v-336q0 -141 -97 -238.5t-239 -97.5h-1769z" />
<glyph unicode="T" d="M82 1343v336h2105v-336h-757v-1343h-590v1343h-758z" />
<glyph unicode="U" d="M82 336v1343h631v-1276q0 -67 65 -67h2h709q68 0 67 67v1276h631v-1343q0 -141 -97 -238.5t-239 -97.5h-1433q-141 0 -238.5 97.5t-97.5 238.5z" />
<glyph unicode="V" horiz-adv-x="2271" d="M82 780v901h631v-901l422 -424l424 424v901h630v-901l-778 -780h-551z" />
<glyph unicode="W" horiz-adv-x="2504" d="M92 0v1679h631v-1110l528 529l531 -529v1110h631v-1679h-631l-531 528l-528 -528h-631z" />
<glyph unicode="X" horiz-adv-x="2392" d="M61 0l840 840l-840 839h631l504 -503l504 503h631l-840 -839l840 -840h-631l-504 504l-504 -504h-631z" />
<glyph unicode="Y" horiz-adv-x="2351" d="M61 1679h631l484 -483l483 483h631l-840 -839v-840h-549v840z" />
<glyph unicode="Z" horiz-adv-x="2351" d="M82 0l1302 1343h-1302v336h2187l-1261 -1343h1261v-336h-2187z" />
<glyph unicode="[" horiz-adv-x="829" d="M82 -174v2044h666v-293h-373v-1458h373v-293h-666z" />
<glyph unicode="\" horiz-adv-x="1034" d="M82 1679h297l573 -1720h-315z" />
<glyph unicode="]" horiz-adv-x="829" d="M82 119h393v1458h-393v293h666v-2044h-666v293z" />
<glyph unicode="^" horiz-adv-x="1325" d="M82 1290l399 400h363l399 -400h-414l-180 180l-180 -180h-387z" />
<glyph unicode="_" horiz-adv-x="1126" d="M82 -143h962v-205h-962v205z" />
<glyph unicode="`" horiz-adv-x="737" d="M82 1980v226l573 -246v-225z" />
<glyph unicode="a" d="M82 0v1343q0 141 97 238.5t239 97.5h1433q141 0 238.5 -97t97.5 -239v-1343h-631v672h-843v-672h-631zM713 1008h843v268q0 67 -65 67h-2h-709q-68 0 -67 -67v-268z" />
<glyph unicode="b" d="M82 0v1679h1769q141 0 238.5 -97t97.5 -239v-335q0 -53 -94 -168q94 -115 94 -168v-336q0 -141 -97 -238.5t-239 -97.5h-1769zM713 336h776h2q65 0 65 67v201q0 68 -67 68h-776v-336zM713 1008h776h2q65 0 65 67v201q0 67 -65 67h-2h-776v-335z" />
<glyph unicode="c" horiz-adv-x="2248" d="M82 336v1007q0 141 97 238.5t239 97.5h1749v-336h-1387q-68 0 -67 -67v-873q0 -67 65 -67h2h1387v-336h-1749q-141 0 -238.5 97.5t-97.5 238.5z" />
<glyph unicode="d" d="M82 0v1679h1769q141 0 238.5 -97t97.5 -239v-1007q0 -141 -97 -238.5t-239 -97.5h-1769zM713 336h776h2q65 0 65 67v873q0 67 -65 67h-2h-776v-1007z" />
<glyph unicode="e" d="M82 0v1679h2105v-336h-1474v-335h630v-336h-630v-336h1474v-336h-2105z" />
<glyph unicode="f" d="M82 0v1679h2105v-336h-1474v-335h630v-336h-630v-672h-631z" />
<glyph unicode="g" d="M82 336v1007q0 141 97 238.5t239 97.5h1769v-336h-1407q-68 0 -67 -67v-873q0 -67 65 -67h2h776v336h-507v336h1138v-1008h-1769q-141 0 -238.5 97.5t-97.5 238.5z" />
<glyph unicode="h" d="M82 0v1679h631v-671h843v671h631v-1679h-631v672h-843v-672h-631z" />
<glyph unicode="i" horiz-adv-x="753" d="M82 0v1679h590v-1679h-590z" />
<glyph unicode="j" horiz-adv-x="2023" d="M82 0v336h1161q68 0 68 67v1276h631v-1343q0 -141 -97.5 -238.5t-238.5 -97.5h-1524z" />
<glyph unicode="k" d="M82 0v1679h610v-1679h-610zM696 840l840 839h651l-839 -839l839 -840h-651z" />
<glyph unicode="l" horiz-adv-x="2064" d="M82 0v1679h631v-1343h1269v-336h-1900z" />
<glyph unicode="m" horiz-adv-x="2525" d="M82 0v1679h631l549 -553l550 553h631v-1679h-631v1110l-550 -553l-549 553v-1110h-631z" />
<glyph unicode="n" horiz-adv-x="2310" d="M82 0v1679h631l925 -925v925h590v-1679h-549l-966 975v-975h-631z" />
<glyph unicode="o" d="M82 336v1007q0 141 97 238.5t239 97.5h1433q141 0 238.5 -97t97.5 -239v-1007q0 -141 -97 -238.5t-239 -97.5h-1433q-141 0 -238.5 97.5t-97.5 238.5zM713 403q0 -67 65 -67h2h709h2q65 0 65 67v873q0 67 -65 67h-2h-709q-68 0 -67 -67v-873z" />
<glyph unicode="p" d="M82 0v1679h1769q141 0 238.5 -97t97.5 -239v-335q0 -141 -97 -238.5t-239 -97.5h-1138v-672h-631zM713 1008h776h2q65 0 65 67v201q0 67 -65 67h-2h-776v-335z" />
<glyph unicode="q" horiz-adv-x="2310" d="M82 336v1007q0 141 97 238.5t239 97.5h1474q141 0 238.5 -97t97.5 -239v-1007q0 -141 -97 -238.5t-239 -97.5h-1474q-141 0 -238.5 97.5t-97.5 238.5zM713 403q0 -67 65 -67h2h207v336h336v-336h207h2q65 0 65 67v873q0 67 -65 67h-2h-750q-68 0 -67 -67v-873z" />
<glyph unicode="r" horiz-adv-x="2248" d="M82 0v1679h1749q141 0 238.5 -97t97.5 -239v-335q0 -141 -97.5 -238.5t-238.5 -97.5h-336l672 -672h-631l-672 672h-151v-672h-631zM713 1008h755h2q66 0 66 67v201q0 67 -66 67h-2h-755v-335z" />
<glyph unicode="s" d="M82 0v336h1407q68 0 67 67v201q0 68 -67 68h-1071q-141 0 -238.5 97t-97.5 239v335q0 141 97 238.5t239 97.5h1769v-336h-1407q-68 0 -67 -67v-201q0 -67 65 -67h2h1071q141 0 238.5 -97.5t97.5 -238.5v-336q0 -141 -97 -238.5t-239 -97.5h-1769z" />
<glyph unicode="t" d="M82 1343v336h2105v-336h-757v-1343h-590v1343h-758z" />
<glyph unicode="u" d="M82 336v1343h631v-1276q0 -67 65 -67h2h709q68 0 67 67v1276h631v-1343q0 -141 -97 -238.5t-239 -97.5h-1433q-141 0 -238.5 97.5t-97.5 238.5z" />
<glyph unicode="v" horiz-adv-x="2271" d="M82 780v901h631v-901l422 -424l424 424v901h630v-901l-778 -780h-551z" />
<glyph unicode="w" horiz-adv-x="2504" d="M92 0v1679h631v-1110l528 529l531 -529v1110h631v-1679h-631l-531 528l-528 -528h-631z" />
<glyph unicode="x" horiz-adv-x="2392" d="M61 0l840 840l-840 839h631l504 -503l504 503h631l-840 -839l840 -840h-631l-504 504l-504 -504h-631z" />
<glyph unicode="y" horiz-adv-x="2351" d="M61 1679h631l484 -483l483 483h631l-840 -839v-840h-549v840z" />
<glyph unicode="z" horiz-adv-x="2351" d="M82 0l1302 1343h-1302v336h2187l-1261 -1343h1261v-336h-2187z" />
<glyph unicode="{" horiz-adv-x="552" d="M82 719v196q102 4 102 140v583q0 246 224 246h63v-184q-102 0 -102 -62v-583q0 -152 -72 -238q72 -90 72 -237v-580q0 -61 102 -61v-185h-63q-223 0 -224 246v580q0 135 -102 139z" />
<glyph unicode="|" horiz-adv-x="409" d="M82 -246v2130h246v-2130h-246z" />
<glyph unicode="}" horiz-adv-x="552" d="M82 -61q102 0 102 61v584q0 150 70 237q-70 88 -70 238v579q0 61 -102 62v184h63q223 0 224 -246v-579q0 -135 102 -139v-197q-102 -4 -102 -139v-584q0 -246 -224 -246h-63v185z" />
<glyph unicode="~" horiz-adv-x="1959" d="M82 696v248q141 94 268 142.5t246 48.5q82 0 169 -17.5t218 -64.5q20 -6 61 -23q213 -76 320 -76q117 0 238.5 49.5t275.5 157.5v-248q-137 -96 -263 -142t-253 -46q-123 0 -340 78q-31 10 -45 16q-8 2 -21 6q-233 80 -362 80q-113 0 -233.5 -49t-278.5 -160z" />
<glyph unicode="&#xa1;" horiz-adv-x="835" d="M82 0v1176h672v-1176h-672zM82 1343v336h672v-336h-672z" />
<glyph unicode="&#xa2;" horiz-adv-x="1054" d="M82 229v729l227 228h223v268h205v-268h195v-287h-195v-612h236v-287h-236v-246h-205v246h-221zM369 381l94 -94h69v612h-69l-94 -90v-428z" />
<glyph unicode="&#xa3;" horiz-adv-x="1064" d="M82 778v185h102v368q0 348 348 348h451v-225h-410q-164 0 -163 -164v-327h204v-185h-204v-594h573v-225h-799v819h-102z" />
<glyph unicode="&#xa4;" horiz-adv-x="1533" d="M82 559h182v275h-182q37 203 190 356q205 203 494 203t494 -203q154 -154 192 -356h-803v-275h803q-39 -203 -192 -354q-205 -205 -494 -205t-494 205q-154 152 -190 354z" />
<glyph unicode="&#xa5;" horiz-adv-x="1814" d="M82 1384l233 258l588 -587l584 587l246 -245l-658 -658v-739h-348v266h-272v185h272v225h-272v184h151z" />
<glyph unicode="&#xa6;" horiz-adv-x="348" d="M82 -246v1004h184v-1004h-184zM82 1085v799h184v-799h-184z" />
<glyph unicode="&#xa7;" horiz-adv-x="1013" d="M82 -6v203h565l82 82v129l-80 84h-366l-187 190l-14 10h4l-4 4v285l104 104l-104 105v287l203 202h546v-202h-462l-84 -84v-129l80 -78h303v-4h49l186 -191v-303l-80 -94l109 -96v-303l-201 -201h-649zM285 770l80 -78h253l80 80v129l-80 80h-249l-84 -84v-127z" />
<glyph unicode="&#xa8;" horiz-adv-x="839" d="M82 1782v286h287v-286h-287zM471 1782v286h287v-286h-287z" />
<glyph unicode="&#xa9;" horiz-adv-x="1781" d="M82 307v1024q0 348 348 348h922q348 0 348 -348v-1028q0 -344 -348 -344h-922q-348 0 -348 348zM266 307q0 -164 164 -164h922q164 0 164 160v1028q0 164 -164 164h-922q-164 0 -164 -164v-1024zM426 518v606l227 228h623v-240h-469l-117 -117v-346l113 -112h514v-248 h-662z" />
<glyph unicode="&#xaa;" horiz-adv-x="757" d="M82 1243v2q0 207 207 207h198v18q0 18 -18 19h-342v190h342q207 0 207 -209v-227q0 -209 -207 -209h-180q-207 0 -207 209zM270 1243q0 -18 19 -18h180q18 0 18 18v19h-198q-18 0 -19 -17v-2z" />
<glyph unicode="&#xab;" horiz-adv-x="1064" d="M82 481v168l491 367v-232l-297 -219l297 -225v-229zM492 481v168l491 367v-232l-297 -219l297 -225v-229z" />
<glyph unicode="&#xac;" horiz-adv-x="1130" d="M82 825v197h967v-567h-195v370h-772z" />
<glyph unicode="&#xad;" horiz-adv-x="860" d="M82 471v246h696v-246h-696z" />
<glyph unicode="&#xae;" horiz-adv-x="1269" d="M82 817v512q0 348 348 348h410q348 0 348 -348v-516q0 -344 -348 -344h-410q-348 0 -348 348zM246 797q0 -164 164 -164h430q184 0 184 160v557q0 164 -184 163h-430q-164 0 -164 -163v-553zM350 717v751h387q207 0 207 -215v-53q0 -190 -166 -213l223 -270h-258 l-204 250v-250h-189zM539 1178h198q18 0 19 22v53q0 20 -19 21h-198v-96z" />
<glyph unicode="&#xaf;" horiz-adv-x="757" d="M82 1987v184h594v-184h-594z" />
<glyph unicode="&#xb0;" horiz-adv-x="860" d="M82 1331q0 348 348 348t348 -348t-348 -348t-348 348zM266 1331q0 -164 164 -164t164 160q0 168 -164 168t-164 -164z" />
<glyph unicode="&#xb1;" horiz-adv-x="1177" d="M82 487v306h354v358h303v-358h357v-306h-357v-284h181v-246h-697v246h213v284h-354z" />
<glyph unicode="&#xb2;" horiz-adv-x="706" d="M82 778v357q0 215 205 215h133q16 0 16 20v94q0 23 -16 23h-295v192h295q205 0 205 -215v-94q0 -215 -205 -215h-133q-18 0 -19 -20v-164h357v-193h-543z" />
<glyph unicode="&#xb3;" horiz-adv-x="706" d="M82 778v193h338q16 0 16 22v142q0 20 -16 20h-338v195h342q12 0 12 20v94q0 23 -16 23h-338v192h338q205 0 205 -215v-94q0 -37 -7.5 -65.5t-21.5 -53.5q29 -51 29 -116v-142q0 -215 -205 -215h-338z" />
<glyph unicode="&#xb4;" horiz-adv-x="737" d="M41 1792v207l655 203v-205z" />
<glyph unicode="&#xb6;" horiz-adv-x="1032" d="M82 1290q0 389 348 389h520v-1720h-184v1331h-154v-1331h-184v1536q-162 -2 -162 -205h-184z" />
<glyph unicode="&#xb7;" horiz-adv-x="655" d="M205 -41v250h246v-250h-246z" />
<glyph unicode="&#xb8;" horiz-adv-x="505" d="M82 -41h143q199 0 199 -195t-203 -194h-139v164h139q39 0 39 30q0 31 -39 31h-139v164z" />
<glyph unicode="&#xb9;" horiz-adv-x="399" d="M82 1487v192q236 0 235 -215v-686h-163v686q0 23 -72 23z" />
<glyph unicode="&#xba;" horiz-adv-x="796" d="M82 1286q0 393 317 393q315 0 316 -393q0 -393 -316 -393q-317 0 -317 393zM250 1286q-1 -184 149 -184q147 0 148 180q0 188 -148 188q-150 0 -149 -184z" />
<glyph unicode="&#xbb;" horiz-adv-x="1064" d="M82 111v231l295 219l-295 225v230l491 -371v-168zM492 111v231l294 219l-294 225v230l491 -371v-168z" />
<glyph unicode="&#xbc;" horiz-adv-x="1476" d="M82 -41l956 1720h211l-958 -1720h-209zM84 778v901h195v-901h-195zM723 100v142l254 618h371v-565h47v-195h-47v-141h-195v141h-430zM956 295h197v483z" />
<glyph unicode="&#xbd;" horiz-adv-x="1499" d="M82 778v901h197v-901h-197zM96 -41l957 1720h211l-959 -1720h-209zM834 -41v356q0 215 219 215h145q23 0 23 21v94q0 23 -23 23h-317v192h317q219 0 219 -215v-94q0 -215 -219 -215h-145q-23 0 -23 -21v-163h387v-193h-583z" />
<glyph unicode="&#xbe;" horiz-adv-x="1699" d="M82 778v193h364q23 0 23 22v142q0 16 -23 20h-364v195h369q18 0 18 20v94q0 23 -23 23h-364v192h364q219 0 220 -215v-94q0 -74 -29 -119q29 -45 29 -116v-142q0 -215 -220 -215h-364zM315 -41l957 1720h211l-959 -1720h-209zM936 100v136l258 624h375v-565h49v-195h-49 v-141h-197v141h-436zM1167 295h205v483z" />
<glyph unicode="&#xbf;" horiz-adv-x="1196" d="M82 199v561l205 205h282v266h291v-553h-491v-391h745v-287h-838zM569 1393v286h291v-286h-291z" />
<glyph unicode="&#xc0;" horiz-adv-x="2449" d="M143 0v1343q0 141 97 238.5t239 97.5h1433q141 0 238.5 -97t97.5 -239v-1343h-631v672h-843v-672h-631zM774 1008h843v268q0 68 -67 67h-709q-68 0 -67 -67v-268zM950 1980v226l573 -246v-225z" />
<glyph unicode="&#xc1;" horiz-adv-x="2449" d="M154 0v1343q0 141 97 238.5t239 97.5h1433q141 0 238.5 -97t97.5 -239v-1343h-631v672h-843v-672h-631zM785 1008h843v268q0 68 -67 67h-709q-68 0 -67 -67v-268zM920 1792v207l655 203v-205z" />
<glyph unicode="&#xc2;" horiz-adv-x="2447" d="M148 0v1343q0 141 97 238.5t239 97.5h1433q141 0 238.5 -97t97.5 -239v-1343h-631v672h-843v-672h-631zM779 1008h843v268q0 68 -67 67h-709q-68 0 -67 -67v-268zM893 1851l256 390h168l272 -390h-204l-154 187l-133 -187h-205z" />
<glyph unicode="&#xc3;" horiz-adv-x="2451" d="M164 0v1343q0 141 97 238.5t239 97.5h1433q141 0 238.5 -97t97.5 -239v-1343h-631v672h-843v-672h-631zM745 2072l102 100q49 35 93.5 48.5t87.5 13.5q55 0 120.5 -15.5t120.5 -33.5h-2q49 -12 100.5 -28.5t98.5 -16.5q31 0 65.5 22.5t81.5 77.5l156 -162l-102 -100 q-49 -35 -93.5 -48.5t-87.5 -13.5q-59 0 -122.5 14.5t-118.5 35.5h2q-49 12 -101.5 27.5t-97.5 15.5q-31 0 -65.5 -21.5t-81.5 -79.5zM795 1008h843v268q0 68 -67 67h-709q-68 0 -67 -67v-268z" />
<glyph unicode="&#xc4;" horiz-adv-x="2457" d="M164 0v1343q0 141 97 238.5t239 97.5h1433q141 0 238.5 -97t97.5 -239v-1343h-631v672h-843v-672h-631zM795 1008h843v268q0 68 -67 67h-709q-68 0 -67 -67v-268zM920 1905v286h287v-286h-287zM1309 1905v286h287v-286h-287z" />
<glyph unicode="&#xc5;" horiz-adv-x="2459" d="M164 0v1343q0 141 97 238.5t239 97.5h1433q141 0 238.5 -97t97.5 -239v-1343h-631v672h-843v-672h-631zM795 1008h843v268q0 68 -67 67h-709q-68 0 -67 -67v-268zM1063 2042q0 195 195 194q197 0 197 -194q0 -197 -197 -197q-195 0 -195 197zM1209 2042q0 -55 49 -55 q55 0 55 51q0 53 -55 53q-49 0 -49 -49z" />
<glyph unicode="&#xc6;" horiz-adv-x="2248" d="M82 0v1343q0 141 97 238.5t239 97.5h1749v-336h-737v-397h385v-336h-385v-274h737v-336h-1184v610h-434v-610h-467zM549 946h434v330q0 68 -68 67h-299q-68 0 -67 -67v-330z" />
<glyph unicode="&#xc7;" horiz-adv-x="2248" d="M82 336v1007q0 141 97 238.5t239 97.5h1749v-336h-1387q-68 0 -67 -67v-873q0 -68 67 -67h1387v-336h-1749q-141 0 -238.5 97.5t-97.5 238.5zM1006 -61h143q199 0 199 -195t-203 -194h-139v164h139q39 0 39 30q0 31 -39 31h-139v164z" />
<glyph unicode="&#xc8;" d="M102 0v1679h2105v-336h-1474v-335h630v-336h-630v-336h1474v-336h-2105zM909 1980v226l573 -246v-225z" />
<glyph unicode="&#xc9;" d="M84 0v1679h2105v-336h-1474v-335h630v-336h-630v-336h1474v-336h-2105zM850 1792v207l655 203v-205z" />
<glyph unicode="&#xca;" d="M84 0v1679h2105v-336h-1474v-335h630v-336h-630v-336h1474v-336h-2105zM829 1810l256 390h168l272 -390h-204l-154 187l-133 -187h-205z" />
<glyph unicode="&#xcb;" d="M86 0v1679h2105v-336h-1474v-335h630v-336h-630v-336h1474v-336h-2105zM842 1782v286h287v-286h-287zM1231 1782v286h287v-286h-287z" />
<glyph unicode="&#xcc;" horiz-adv-x="897" d="M91 0v1679h589v-1679h-589zM98 1980v226l573 -246v-225z" />
<glyph unicode="&#xcd;" horiz-adv-x="897" d="M61 1792v207l655 203v-205zM95 0v1679h589v-1679h-589z" />
<glyph unicode="&#xce;" horiz-adv-x="897" d="M33 1810l256 390h168l272 -390h-204l-154 187l-133 -187h-205zM86 0v1679h589v-1679h-589z" />
<glyph unicode="&#xcf;" horiz-adv-x="897" d="M39 1782v286h287v-286h-287zM82 0v1679h589v-1679h-589zM428 1782v286h287v-286h-287z" />
<glyph unicode="&#xd0;" horiz-adv-x="2525" d="M0 696v287h256v696h1851q141 0 238.5 -97t97.5 -239v-1007q0 -141 -97 -238.5t-239 -97.5h-1851v696h-256zM887 336h858q68 0 67 67v873q0 68 -67 67h-858v-360h233v-287h-233v-360z" />
<glyph unicode="&#xd1;" horiz-adv-x="2310" d="M82 0v1679h631l925 -925v925h590v-1679h-549l-966 975v-975h-631zM664 2011l102 100q49 35 93.5 48.5t87.5 13.5q55 0 120.5 -15.5t120.5 -33.5h-2q49 -12 100.5 -28.5t98.5 -16.5q31 0 65.5 22.5t81.5 77.5l156 -162l-102 -100q-49 -35 -93.5 -48.5t-87.5 -13.5 q-59 0 -122.5 14.5t-118.5 35.5h2q-49 12 -101.5 27.5t-97.5 15.5q-31 0 -65.5 -21.5t-81.5 -79.5z" />
<glyph unicode="&#xd2;" d="M82 336v1007q0 141 97 238.5t239 97.5h1433q141 0 238.5 -97t97.5 -239v-1007q0 -141 -97 -238.5t-239 -97.5h-1433q-141 0 -238.5 97.5t-97.5 238.5zM713 403q0 -68 67 -67h709q67 -1 67 67v873q0 68 -67 67h-709q-68 0 -67 -67v-873zM889 1980v226l573 -246v-225z" />
<glyph unicode="&#xd3;" d="M82 336v1007q0 141 97 238.5t239 97.5h1433q141 0 238.5 -97t97.5 -239v-1007q0 -141 -97 -238.5t-239 -97.5h-1433q-141 0 -238.5 97.5t-97.5 238.5zM713 403q0 -68 67 -67h709q67 -1 67 67v873q0 68 -67 67h-709q-68 0 -67 -67v-873zM848 1792v207l655 203v-205z" />
<glyph unicode="&#xd4;" d="M82 336v1007q0 141 97 238.5t239 97.5h1433q141 0 238.5 -97t97.5 -239v-1007q0 -141 -97 -238.5t-239 -97.5h-1433q-141 0 -238.5 97.5t-97.5 238.5zM713 403q0 -68 67 -67h709q67 -1 67 67v873q0 68 -67 67h-709q-68 0 -67 -67v-873zM827 1810l256 390h168l272 -390 h-204l-154 187l-133 -187h-205z" />
<glyph unicode="&#xd5;" d="M82 336v1007q0 141 97 238.5t239 97.5h1433q141 0 238.5 -97t97.5 -239v-1007q0 -141 -97 -238.5t-239 -97.5h-1433q-141 0 -238.5 97.5t-97.5 238.5zM664 2011l102 100q49 35 93.5 48.5t87.5 13.5q55 0 120.5 -15.5t120.5 -33.5h-2q49 -12 100.5 -28.5t98.5 -16.5 q31 0 65.5 22.5t81.5 77.5l156 -162l-102 -100q-49 -35 -93.5 -48.5t-87.5 -13.5q-59 0 -122.5 14.5t-118.5 35.5h2q-49 12 -101.5 27.5t-97.5 15.5q-31 0 -65.5 -21.5t-81.5 -79.5zM713 403q0 -68 67 -67h709q67 -1 67 67v873q0 68 -67 67h-709q-68 0 -67 -67v-873z" />
<glyph unicode="&#xd6;" d="M82 336v1007q0 141 97 238.5t239 97.5h1433q141 0 238.5 -97t97.5 -239v-1007q0 -141 -97 -238.5t-239 -97.5h-1433q-141 0 -238.5 97.5t-97.5 238.5zM713 403q0 -68 67 -67h709q67 -1 67 67v873q0 68 -67 67h-709q-68 0 -67 -67v-873zM838 1823v286h287v-286h-287z M1227 1823v286h287v-286h-287z" />
<glyph unicode="&#xd7;" horiz-adv-x="1157" d="M82 0l356 487l-356 486h268l228 -311l229 311h268l-352 -486l352 -487h-268l-229 313l-228 -313h-268z" />
<glyph unicode="&#xd8;" horiz-adv-x="1554" d="M82 303v1047l307 307h776l308 -307v-1047l-306 -303h-782zM416 498l559 825h-440l-119 -119v-706zM584 334h438l121 119v706z" />
<glyph unicode="&#xd9;" d="M82 336v1343h631v-1276q0 -68 67 -67h709q68 0 67 67v1276h631v-1343q0 -141 -97 -238.5t-239 -97.5h-1433q-141 0 -238.5 97.5t-97.5 238.5zM889 1980v226l573 -246v-225z" />
<glyph unicode="&#xda;" d="M102 336v1343h631v-1276q0 -68 67 -67h709q68 0 67 67v1276h631v-1343q0 -141 -97 -238.5t-239 -97.5h-1433q-141 0 -238.5 97.5t-97.5 238.5zM868 1792v207l655 203v-205z" />
<glyph unicode="&#xdb;" d="M102 336v1343h631v-1276q0 -68 67 -67h709q68 0 67 67v1276h631v-1343q0 -141 -97 -238.5t-239 -97.5h-1433q-141 0 -238.5 97.5t-97.5 238.5zM848 1810l256 390h168l272 -390h-204l-154 187l-133 -187h-205z" />
<glyph unicode="&#xdc;" d="M102 336v1343h631v-1276q0 -68 67 -67h709q68 0 67 67v1276h631v-1343q0 -141 -97 -238.5t-239 -97.5h-1433q-141 0 -238.5 97.5t-97.5 238.5zM858 1782v286h287v-286h-287zM1247 1782v286h287v-286h-287z" />
<glyph unicode="&#xdd;" horiz-adv-x="1669" d="M61 1679h631l484 -483l483 483h631l-840 -839v-840h-549v840zM848 1792v207l655 203v-205z" />
<glyph unicode="&#xde;" horiz-adv-x="1146" d="M82 -41v1720h266v-307h369q348 0 348 -348v-512q0 -348 -348 -348h-369v-205h-266zM348 430h328q164 0 164 164v348q0 164 -164 164h-328v-676z" />
<glyph unicode="&#xdf;" d="M82 0v1679h1769q141 0 238.5 -97t97.5 -239v-335q0 -53 -94 -168q94 -115 94 -168v-336q0 -141 -97 -238.5t-239 -97.5h-893v336h531q68 0 67 67v201q0 68 -67 68h-531v336h531q68 0 67 67v201q0 68 -67 67h-776v-1343h-631z" />
<glyph unicode="&#xe0;" horiz-adv-x="2146" d="M82 0v1180q0 141 97 238.5t239 97.5h1311q141 0 238 -97.5t97 -238.5v-1180h-630v508h-721v-508h-631zM713 844h721v268q0 68 -68 68h-586q-68 0 -67 -68v-268zM786 1919v225l574 -246v-225z" />
<glyph unicode="&#xe1;" horiz-adv-x="2146" d="M82 0v1180q0 141 97 238.5t239 97.5h1311q141 0 238 -97.5t97 -238.5v-1180h-630v508h-721v-508h-631zM713 844h721v268q0 68 -68 68h-586q-68 0 -67 -68v-268zM745 1669v207l656 203v-205z" />
<glyph unicode="&#xe2;" horiz-adv-x="2146" d="M82 0v1180q0 141 97 238.5t239 97.5h1311q141 0 238 -97.5t97 -238.5v-1180h-630v508h-721v-508h-631zM713 844h721v268q0 68 -68 68h-586q-68 0 -67 -68v-268zM725 1667l256 389h168l272 -389h-204l-154 186l-133 -186h-205z" />
<glyph unicode="&#xe3;" horiz-adv-x="2146" d="M82 0v1180q0 141 97 238.5t239 97.5h1311q141 0 238 -97.5t97 -238.5v-1180h-630v508h-721v-508h-631zM561 1827l103 100q49 35 93 48.5t87 13.5q55 0 120.5 -15.5t120.5 -34.5h-2q49 -12 100.5 -28.5t98.5 -16.5q31 0 65.5 22.5t82.5 78.5l155 -162l-102 -100 q-49 -35 -93 -48.5t-87 -13.5q-59 0 -123 14.5t-119 34.5h2q-49 12 -101.5 27.5t-97.5 15.5q-31 0 -65.5 -21.5t-81.5 -78.5zM713 844h721v268q0 68 -68 68h-586q-68 0 -67 -68v-268z" />
<glyph unicode="&#xe4;" horiz-adv-x="2146" d="M82 0v1180q0 141 97 238.5t239 97.5h1311q141 0 238 -97.5t97 -238.5v-1180h-630v508h-721v-508h-631zM713 844h721v268q0 68 -68 68h-586q-68 0 -67 -68v-268zM752 1679v287h286v-287h-286zM1141 1679v287h286v-287h-286z" />
<glyph unicode="&#xe5;" horiz-adv-x="2146" d="M82 0v1180q0 141 97 238.5t239 97.5h1311q141 0 238 -97.5t97 -238.5v-1180h-630v508h-721v-508h-631zM713 844h721v268q0 68 -68 68h-586q-68 0 -67 -68v-268zM879 1878q0 195 194 195q197 0 197 -195q0 -197 -197 -197q-194 0 -194 197zM1022 1878q0 -55 49 -55 q55 0 55 51q0 53 -55 53q-49 0 -49 -49z" />
<glyph unicode="&#xe6;" horiz-adv-x="2248" d="M82 0v1180q0 141 97 238.5t239 97.5h1749v-336h-737v-316h385v-336h-385v-192h737v-336h-1184v528h-434v-528h-467zM549 864h434v248q0 68 -68 68h-299q-68 0 -67 -68v-248z" />
<glyph unicode="&#xe7;" horiz-adv-x="2146" d="M82 336v844q0 141 97 238.5t239 97.5h1646v-336h-1284q-68 0 -67 -68v-709q0 -68 67 -67h1284v-336h-1646q-141 0 -238.5 97.5t-97.5 238.5zM903 -61h144q199 0 198 -195q0 -195 -203 -195h-139v164h139q39 0 39 31t-39 31h-139v164z" />
<glyph unicode="&#xe8;" horiz-adv-x="2146" d="M82 0v1516h1982v-336h-1351v-295h590v-275h-590v-274h1351v-336h-1982zM786 1919v225l574 -246v-225z" />
<glyph unicode="&#xe9;" horiz-adv-x="2146" d="M82 0v1516h1982v-336h-1351v-295h590v-275h-590v-274h1351v-336h-1982zM850 1669v207l655 203v-205z" />
<glyph unicode="&#xea;" horiz-adv-x="2146" d="M82 0v1516h1982v-336h-1351v-295h590v-275h-590v-274h1351v-336h-1982zM725 1667l256 389h168l272 -389h-204l-154 186l-133 -186h-205z" />
<glyph unicode="&#xeb;" horiz-adv-x="2146" d="M82 0v1516h1982v-336h-1351v-295h590v-275h-590v-274h1351v-336h-1982zM760 1679v287h287v-287h-287zM1149 1679v287h287v-287h-287z" />
<glyph unicode="&#xec;" horiz-adv-x="753" d="M82 0v1516h590v-1516h-590zM90 1919v225l574 -246v-225z" />
<glyph unicode="&#xed;" horiz-adv-x="819" d="M82 1669v207l655 203v-205zM115 0v1516h590v-1516h-590z" />
<glyph unicode="&#xee;" horiz-adv-x="860" d="M82 1667l256 389h168l272 -389h-205l-153 186l-133 -186h-205zM135 0v1516h590v-1516h-590z" />
<glyph unicode="&#xef;" horiz-adv-x="839" d="M82 1782v286h287v-286h-287zM104 0v1516h590v-1516h-590zM471 1782v286h287v-286h-287z" />
<glyph unicode="&#xf0;" horiz-adv-x="2525" d="M0 696v287h256v696h1851q141 0 238.5 -97t97.5 -239v-1007q0 -141 -97 -238.5t-239 -97.5h-1851v696h-256zM887 336h858q68 0 67 67v873q0 68 -67 67h-858v-360h233v-287h-233v-360z" />
<glyph unicode="&#xf1;" horiz-adv-x="2146" d="M82 0v1516h590l762 -762v762h630v-1516h-589l-762 762v-762h-631zM561 1847l103 101q49 35 93 48t87 13q55 0 120.5 -15.5t120.5 -33.5h-2q49 -12 100.5 -28.5t98.5 -16.5q31 0 65.5 22.5t82.5 77.5l155 -162l-102 -100q-49 -35 -93 -48t-87 -13q-59 0 -123 14t-119 35h2 q-49 12 -101.5 27.5t-97.5 15.5q-31 0 -65.5 -21.5t-81.5 -79.5z" />
<glyph unicode="&#xf2;" horiz-adv-x="2146" d="M82 336v844q0 141 97 238.5t239 97.5h1311q141 0 238 -97.5t97 -238.5v-844q0 -141 -97 -238.5t-238 -97.5h-1311q-141 0 -238.5 97.5t-97.5 238.5zM713 403q0 -68 67 -67h586q68 -1 68 67v709q0 68 -68 68h-586q-68 0 -67 -68v-709zM786 1919v225l574 -246v-225z" />
<glyph unicode="&#xf3;" horiz-adv-x="2146" d="M82 336v844q0 141 97 238.5t239 97.5h1311q141 0 238 -97.5t97 -238.5v-844q0 -141 -97 -238.5t-238 -97.5h-1311q-141 0 -238.5 97.5t-97.5 238.5zM713 403q0 -68 67 -67h586q68 -1 68 67v709q0 68 -68 68h-586q-68 0 -67 -68v-709zM745 1669v207l656 203v-205z" />
<glyph unicode="&#xf4;" horiz-adv-x="2146" d="M82 336v844q0 141 97 238.5t239 97.5h1311q141 0 238 -97.5t97 -238.5v-844q0 -141 -97 -238.5t-238 -97.5h-1311q-141 0 -238.5 97.5t-97.5 238.5zM713 403q0 -68 67 -67h586q68 -1 68 67v709q0 68 -68 68h-586q-68 0 -67 -68v-709zM725 1667l256 389h168l272 -389h-204 l-154 186l-133 -186h-205z" />
<glyph unicode="&#xf5;" horiz-adv-x="2146" d="M82 336v844q0 141 97 238.5t239 97.5h1311q141 0 238 -97.5t97 -238.5v-844q0 -141 -97 -238.5t-238 -97.5h-1311q-141 0 -238.5 97.5t-97.5 238.5zM561 1847l103 101q49 35 93 48t87 13q55 0 120.5 -15.5t120.5 -33.5h-2q49 -12 100.5 -28.5t98.5 -16.5q31 0 65.5 22.5 t82.5 77.5l155 -162l-102 -100q-49 -35 -93 -48t-87 -13q-59 0 -123 14t-119 35h2q-49 12 -101.5 27.5t-97.5 15.5q-31 0 -65.5 -21.5t-81.5 -79.5zM713 403q0 -68 67 -67h586q68 -1 68 67v709q0 68 -68 68h-586q-68 0 -67 -68v-709z" />
<glyph unicode="&#xf6;" horiz-adv-x="2146" d="M82 336v844q0 141 97 238.5t239 97.5h1311q141 0 238 -97.5t97 -238.5v-844q0 -141 -97 -238.5t-238 -97.5h-1311q-141 0 -238.5 97.5t-97.5 238.5zM713 403q0 -68 67 -67h586q68 -1 68 67v709q0 68 -68 68h-586q-68 0 -67 -68v-709zM776 1659v287h287v-287h-287z M1165 1659v287h287v-287h-287z" />
<glyph unicode="&#xf7;" horiz-adv-x="860" d="M62 471v246h696v-246h-696zM252 103v323h317v-323h-317zM252 764v324h317v-324h-317z" />
<glyph unicode="&#xf8;" horiz-adv-x="2146" d="M82 336v844q0 141 97 238.5t239 97.5h1311q141 0 238 -97.5t97 -238.5v-844q0 -141 -97 -238.5t-238 -97.5h-1311q-141 0 -238.5 97.5t-97.5 238.5zM713 469l620 711h-553q-68 0 -67 -68v-643zM825 336h541q68 0 68 67v639z" />
<glyph unicode="&#xf9;" horiz-adv-x="2146" d="M82 336v1180h631v-1113q0 -68 67 -67h586q68 0 68 67v1113h630v-1180q0 -141 -97 -238.5t-238 -97.5h-1311q-141 0 -238.5 97.5t-97.5 238.5zM786 1919v225l574 -246v-225z" />
<glyph unicode="&#xfa;" horiz-adv-x="2146" d="M82 336v1180h631v-1113q0 -68 67 -67h586q68 0 68 67v1113h630v-1180q0 -141 -97 -238.5t-238 -97.5h-1311q-141 0 -238.5 97.5t-97.5 238.5zM745 1669v207l656 203v-205z" />
<glyph unicode="&#xfb;" horiz-adv-x="2146" d="M82 336v1180h631v-1113q0 -68 67 -67h586q68 0 68 67v1113h630v-1180q0 -141 -97 -238.5t-238 -97.5h-1311q-141 0 -238.5 97.5t-97.5 238.5zM725 1667l256 389h168l272 -389h-204l-154 186l-133 -186h-205z" />
<glyph unicode="&#xfc;" horiz-adv-x="2146" d="M82 336v1180h631v-1113q0 -68 67 -67h586q68 0 68 67v1113h630v-1180q0 -141 -97 -238.5t-238 -97.5h-1311q-141 0 -238.5 97.5t-97.5 238.5zM756 1679v287h286v-287h-286zM1145 1679v287h287v-287h-287z" />
<glyph unicode="&#xfd;" horiz-adv-x="2146" d="M61 1516h611l401 -402l402 402h589l-716 -738v-778h-549v778zM868 1669v207l656 203v-205z" />
<glyph unicode="&#xfe;" horiz-adv-x="1146" d="M82 -41v1720h266v-307h369q348 0 348 -348v-512q0 -348 -348 -348h-369v-205h-266zM348 430h328q164 0 164 164v348q0 164 -164 164h-328v-676z" />
<glyph unicode="&#xff;" horiz-adv-x="2166" d="M82 1516h610l402 -402l401 402h590l-717 -738v-778h-549v778zM797 1679v287h286v-287h-286zM1186 1679v287h287v-287h-287z" />
<glyph unicode="&#x100;" d="M62 0v1343q0 141 97 238.5t239 97.5h1433q141 0 238.5 -97t97.5 -239v-1343h-631v672h-843v-672h-631zM693 1008h843v268q0 68 -67 67h-709q-68 0 -67 -67v-268zM858 1987v184h594v-184h-594z" />
<glyph unicode="&#x101;" d="M82 0v1343q0 141 97 238.5t239 97.5h1433q141 0 238.5 -97t97.5 -239v-1343h-631v672h-843v-672h-631zM713 1008h843v268q0 68 -67 67h-709q-68 0 -67 -67v-268zM879 1987v184h594v-184h-594z" />
<glyph unicode="&#x102;" d="M62 0v1343q0 141 97 238.5t239 97.5h1433q141 0 238.5 -97t97.5 -239v-1343h-631v672h-843v-672h-631zM693 1008h843v268q0 68 -67 67h-709q-68 0 -67 -67v-268zM770 2208h203q0 -228 182 -228q180 0 180 179v49h205q0 -430 -385 -430t-385 430z" />
<glyph unicode="&#x103;" d="M82 0v1343q0 141 97 238.5t239 97.5h1433q141 0 238.5 -97t97.5 -239v-1343h-631v672h-843v-672h-631zM713 1008h843v268q0 68 -67 67h-709q-68 0 -67 -67v-268zM791 2208h202q1 -228 183 -228q180 0 180 179v49h205q0 -430 -385 -430t-385 430z" />
<glyph unicode="&#x104;" d="M62 0v1343q0 141 97 238.5t239 97.5h1433q141 0 238.5 -97t97.5 -239v-1343h-631v672h-843v-672h-631zM693 1008h843v268q0 68 -67 67h-709q-68 0 -67 -67v-268zM985 -236q0 86 44 140.5t137 54.5h161v-164h-139q-39 0 -39 -31t39 -30h139v-164h-139q-203 0 -203 194z " />
<glyph unicode="&#x105;" d="M82 0v1343q0 141 97 238.5t239 97.5h1433q141 0 238.5 -97t97.5 -239v-1343h-631v672h-843v-672h-631zM713 1008h843v268q0 68 -67 67h-709q-68 0 -67 -67v-268zM1006 -236q0 86 44 140.5t136 54.5h162v-164h-140q-39 0 -39 -31t39 -30h140v-164h-140q-203 0 -202 194z " />
<glyph unicode="&#x106;" horiz-adv-x="2248" d="M143 336v1007q0 141 97 238.5t239 97.5h1749v-336h-1387q-68 0 -67 -67v-873q0 -68 67 -67h1387v-336h-1749q-141 0 -238.5 97.5t-97.5 238.5zM909 1792v207l655 203v-205z" />
<glyph unicode="&#x107;" horiz-adv-x="2248" d="M82 336v1007q0 141 97 238.5t239 97.5h1749v-336h-1387q-68 0 -67 -67v-873q0 -68 67 -67h1387v-336h-1749q-141 0 -238.5 97.5t-97.5 238.5zM848 1792v207l655 203v-205z" />
<glyph unicode="&#x10c;" horiz-adv-x="2248" d="M143 336v1007q0 141 97 238.5t239 97.5h1749v-336h-1387q-68 0 -67 -67v-873q0 -68 67 -67h1387v-336h-1749q-141 0 -238.5 97.5t-97.5 238.5zM889 2200h205l133 -187l154 187h204l-272 -390h-168z" />
<glyph unicode="&#x10d;" horiz-adv-x="2146" d="M82 336v844q0 141 97 238.5t239 97.5h1646v-336h-1284q-68 0 -67 -68v-709q0 -68 67 -67h1284v-336h-1646q-141 0 -238.5 97.5t-97.5 238.5zM725 2056h205l133 -186l154 186h204l-272 -389h-168z" />
<glyph unicode="&#x10e;" d="M143 0v1679h1769q141 0 238.5 -97t97.5 -239v-1007q0 -141 -97 -238.5t-239 -97.5h-1769zM774 336h776q67 -1 67 67v873q0 68 -67 67h-776v-1007zM889 2200h205l133 -187l154 187h204l-272 -390h-168z" />
<glyph unicode="&#x10f;" d="M82 0v1679h1769q141 0 238.5 -97t97.5 -239v-1007q0 -141 -97 -238.5t-239 -97.5h-1769zM713 336h776q67 -1 67 67v873q0 68 -67 67h-776v-1007zM827 2200h205l133 -187l154 187h205l-273 -390h-168z" />
<glyph unicode="&#x110;" horiz-adv-x="2351" d="M82 0v1679h1851q141 0 238.5 -97t97.5 -239v-1007q0 -141 -97 -238.5t-239 -97.5h-1851zM713 336h858q67 -1 67 67v873q0 68 -67 67h-858v-1007zM858 1987v184h594v-184h-594z" />
<glyph unicode="&#x111;" horiz-adv-x="2351" d="M82 0v1679h1851q141 0 238.5 -97t97.5 -239v-1007q0 -141 -97 -238.5t-239 -97.5h-1851zM713 336h858q67 -1 67 67v873q0 68 -67 67h-858v-1007zM858 1987v184h594v-184h-594z" />
<glyph unicode="&#x112;" d="M82 0v1679h2105v-336h-1474v-335h630v-336h-630v-336h1474v-336h-2105zM879 1864v184h594v-184h-594z" />
<glyph unicode="&#x113;" d="M82 0v1679h2105v-336h-1474v-335h630v-336h-630v-336h1474v-336h-2105zM879 1864v184h594v-184h-594z" />
<glyph unicode="&#x116;" d="M143 0v1679h2105v-336h-1474v-335h630v-336h-630v-336h1474v-336h-2105zM1093 1919v287h287v-287h-287z" />
<glyph unicode="&#x117;" d="M82 0v1679h2105v-336h-1474v-335h630v-336h-630v-336h1474v-336h-2105zM1032 1919v287h287v-287h-287z" />
<glyph unicode="&#x118;" d="M143 0v1679h2105v-336h-1474v-335h630v-336h-630v-336h1474v-336h-2105zM1067 -236q0 86 44 140.5t137 54.5h161v-164h-139q-39 0 -39 -31t39 -30h139v-164h-139q-203 0 -203 194z" />
<glyph unicode="&#x119;" d="M82 0v1679h2105v-336h-1474v-335h630v-336h-630v-336h1474v-336h-2105zM1006 -236q0 86 44 140.5t136 54.5h162v-164h-140q-39 0 -39 -31t39 -30h140v-164h-140q-203 0 -202 194z" />
<glyph unicode="&#x11a;" d="M143 0v1679h2105v-336h-1474v-335h630v-336h-630v-336h1474v-336h-2105zM889 2200h205l133 -187l154 187h204l-272 -390h-168z" />
<glyph unicode="&#x11b;" d="M82 0v1679h2105v-336h-1474v-335h630v-336h-630v-336h1474v-336h-2105zM827 2200h205l133 -187l154 187h205l-273 -390h-168z" />
<glyph unicode="&#x11e;" d="M143 336v1007q0 141 97 238.5t239 97.5h1769v-336h-1407q-68 0 -67 -67v-873q0 -68 67 -67h776v336h-507v336h1138v-1008h-1769q-141 0 -238.5 97.5t-97.5 238.5zM852 2208h203q0 -228 182 -228q180 0 180 179v49h205q0 -430 -385 -430t-385 430z" />
<glyph unicode="&#x11f;" d="M82 336v1007q0 141 97 238.5t239 97.5h1769v-336h-1407q-68 0 -67 -67v-873q0 -68 67 -67h776v336h-507v336h1138v-1008h-1769q-141 0 -238.5 97.5t-97.5 238.5zM791 2208h202q1 -228 183 -228q180 0 180 179v49h205q0 -430 -385 -430t-385 430z" />
<glyph unicode="&#x122;" d="M143 336v1007q0 141 97 238.5t239 97.5h1769v-336h-1407q-68 0 -67 -67v-873q0 -68 67 -67h776v336h-507v336h1138v-1008h-1769q-141 0 -238.5 97.5t-97.5 238.5zM1067 -41h143q199 0 199 -195t-203 -194h-139v164h139q39 0 39 30q0 31 -39 31h-139v164z" />
<glyph unicode="&#x123;" d="M82 336v1007q0 141 97 238.5t239 97.5h1769v-336h-1407q-68 0 -67 -67v-873q0 -68 67 -67h776v336h-507v336h1138v-1008h-1769q-141 0 -238.5 97.5t-97.5 238.5zM1006 -41h143q199 0 199 -195t-203 -194h-139v164h139q39 0 39 30q0 31 -39 31h-139v164z" />
<glyph unicode="&#x12a;" horiz-adv-x="897" d="M76 1987v184h594v-184h-594zM78 0v1679h589v-1679h-589z" />
<glyph unicode="&#x12b;" horiz-adv-x="757" d="M82 1987v184h594v-184h-594zM84 0v1679h590v-1679h-590z" />
<glyph unicode="&#x12e;" horiz-adv-x="753" d="M82 0v1679h590v-1679h-590zM207 -256q0 86 44 140.5t136 54.5h162v-164h-139q-39 0 -39 -31t39 -31h139v-164h-139q-203 0 -203 195z" />
<glyph unicode="&#x12f;" horiz-adv-x="753" d="M82 0v1679h590v-1679h-590zM207 -256q0 86 44 140.5t136 54.5h162v-164h-139q-39 0 -39 -31t39 -31h139v-164h-139q-203 0 -203 195z" />
<glyph unicode="&#x130;" horiz-adv-x="897" d="M91 0v1679h589v-1679h-589zM241 1919v287h287v-287h-287z" />
<glyph unicode="&#x131;" horiz-adv-x="753" d="M82 0v1679h590v-1679h-590z" />
<glyph unicode="&#x136;" d="M143 0v1679h610v-1679h-610zM757 840l840 839h651l-839 -839l839 -840h-651zM1047 -41h143q199 0 199 -195t-203 -194h-139v164h139q39 0 39 30q0 31 -39 31h-139v164z" />
<glyph unicode="&#x137;" d="M82 0v1679h610v-1679h-610zM696 840l840 839h651l-839 -839l839 -840h-651zM985 -41h143q199 0 199 -195t-203 -194h-139v164h139q39 0 39 30q0 31 -39 31h-139v164z" />
<glyph unicode="&#x139;" horiz-adv-x="2064" d="M164 0v1679h631v-1343h1269v-336h-1900zM930 1792v207l655 203v-205z" />
<glyph unicode="&#x13a;" horiz-adv-x="2064" d="M82 0v1679h631v-1343h1269v-336h-1900zM848 1792v207l655 203v-205z" />
<glyph unicode="&#x13b;" horiz-adv-x="2064" d="M133 0v1679h631v-1343h1269v-336h-1900zM1057 -41h143q199 0 199 -195t-203 -194h-139v164h139q39 0 39 30q0 31 -39 31h-139v164z" />
<glyph unicode="&#x13c;" horiz-adv-x="2064" d="M82 0v1679h631v-1343h1269v-336h-1900zM1006 -41h143q199 0 199 -195t-203 -194h-139v164h139q39 0 39 30q0 31 -39 31h-139v164z" />
<glyph unicode="&#x13d;" horiz-adv-x="2064" d="M133 0v1679h631v-1343h1269v-336h-1900zM1108 1430v249h246v-211l-62 -225h-141l37 187h-80z" />
<glyph unicode="&#x13e;" horiz-adv-x="2064" d="M82 0v1679h631v-1343h1269v-336h-1900zM1057 1430v249h246v-211l-62 -225h-141l37 187h-80z" />
<glyph unicode="&#x141;" horiz-adv-x="2717" d="M20 829l429 132v718h630v-526l338 102l80 -258l-418 -127v-534h1557v-336h-2187v678l-351 -107z" />
<glyph unicode="&#x142;" horiz-adv-x="2779" d="M82 829l428 132v718h631v-526l338 102l80 -258l-418 -127v-534h1556v-336h-2187v678l-350 -107z" />
<glyph unicode="&#x143;" horiz-adv-x="2310" d="M143 0v1679h631l925 -925v925h590v-1679h-549l-966 975v-975h-631zM909 1792v207l655 203v-205z" />
<glyph unicode="&#x144;" horiz-adv-x="2310" d="M82 0v1679h631l925 -925v925h590v-1679h-549l-966 975v-975h-631zM848 1792v207l655 203v-205z" />
<glyph unicode="&#x145;" horiz-adv-x="2310" d="M143 0v1679h631l925 -925v925h590v-1679h-549l-966 975v-975h-631zM1067 -61h143q199 0 199 -195t-203 -194h-139v164h139q39 0 39 30q0 31 -39 31h-139v164z" />
<glyph unicode="&#x146;" horiz-adv-x="2310" d="M82 0v1679h631l925 -925v925h590v-1679h-549l-966 975v-975h-631zM1006 -61h143q199 0 199 -195t-203 -195h-139v164h139q39 0 39 31t-39 31h-139v164z" />
<glyph unicode="&#x147;" horiz-adv-x="2310" d="M143 0v1679h631l925 -925v925h590v-1679h-549l-966 975v-975h-631zM889 2200h205l133 -187l154 187h204l-272 -390h-168z" />
<glyph unicode="&#x148;" horiz-adv-x="2310" d="M82 0v1679h631l925 -925v925h590v-1679h-549l-966 975v-975h-631zM827 2200h205l133 -187l154 187h205l-273 -390h-168z" />
<glyph unicode="&#x14c;" d="M143 336v1007q0 141 97 238.5t239 97.5h1433q141 0 238.5 -97t97.5 -239v-1007q0 -141 -97 -238.5t-239 -97.5h-1433q-141 0 -238.5 97.5t-97.5 238.5zM774 403q0 -68 67 -67h709q67 -1 67 67v873q0 68 -67 67h-709q-68 0 -67 -67v-873zM940 1987v184h594v-184h-594z" />
<glyph unicode="&#x14d;" d="M82 336v1007q0 141 97 238.5t239 97.5h1433q141 0 238.5 -97t97.5 -239v-1007q0 -141 -97 -238.5t-239 -97.5h-1433q-141 0 -238.5 97.5t-97.5 238.5zM713 403q0 -68 67 -67h709q67 -1 67 67v873q0 68 -67 67h-709q-68 0 -67 -67v-873zM879 1987v184h594v-184h-594z" />
<glyph unicode="&#x150;" d="M143 336v1007q0 141 97 238.5t239 97.5h1433q141 0 238.5 -97t97.5 -239v-1007q0 -141 -97 -238.5t-239 -97.5h-1433q-141 0 -238.5 97.5t-97.5 238.5zM774 403q0 -68 67 -67h709q67 -1 67 67v873q0 68 -67 67h-709q-68 0 -67 -67v-873zM883 1858l205 348h213l-205 -348 h-213zM1174 1858l205 348h213l-205 -348h-213z" />
<glyph unicode="&#x151;" d="M82 336v1007q0 141 97 238.5t239 97.5h1433q141 0 238.5 -97t97.5 -239v-1007q0 -141 -97 -238.5t-239 -97.5h-1433q-141 0 -238.5 97.5t-97.5 238.5zM713 403q0 -68 67 -67h709q67 -1 67 67v873q0 68 -67 67h-709q-68 0 -67 -67v-873zM821 1858l205 348h213l-205 -348 h-213zM1112 1858l205 348h213l-205 -348h-213z" />
<glyph unicode="&#x152;" horiz-adv-x="2699" d="M82 336v1007q0 141 97 238.5t239 97.5h2199v-336h-942v-335h426v-336h-426v-336h942v-336h-2199q-141 0 -238.5 97.5t-97.5 238.5zM508 403q0 -68 67 -67h586q68 -1 68 67v873q0 68 -68 67h-586q-68 0 -67 -67v-873z" />
<glyph unicode="&#x153;" horiz-adv-x="2699" d="M82 336v1007q0 141 97 238.5t239 97.5h2199v-336h-942v-335h426v-336h-426v-336h942v-336h-2199q-141 0 -238.5 97.5t-97.5 238.5zM508 403q0 -68 67 -67h586q68 -1 68 67v873q0 68 -68 67h-586q-68 0 -67 -67v-873z" />
<glyph unicode="&#x154;" horiz-adv-x="2248" d="M143 0v1679h1749q141 0 238.5 -97t97.5 -239v-335q0 -141 -97.5 -238.5t-238.5 -97.5h-336l672 -672h-631l-672 672h-151v-672h-631zM774 1008h755q68 -1 68 67v201q0 68 -68 67h-755v-335zM899 1792v207l655 203v-205z" />
<glyph unicode="&#x155;" horiz-adv-x="2248" d="M82 0v1679h1749q141 0 238.5 -97t97.5 -239v-335q0 -141 -97.5 -238.5t-238.5 -97.5h-336l672 -672h-631l-672 672h-151v-672h-631zM713 1008h755q68 -1 68 67v201q0 68 -68 67h-755v-335zM838 1792v207l655 203v-205z" />
<glyph unicode="&#x156;" horiz-adv-x="2248" d="M143 0v1679h1749q141 0 238.5 -97t97.5 -239v-335q0 -141 -97.5 -238.5t-238.5 -97.5h-336l672 -672h-631l-672 672h-151v-672h-631zM774 1008h755q68 -1 68 67v201q0 68 -68 67h-755v-335zM1057 -41h143q199 0 199 -195t-203 -194h-139v164h139q39 0 39 30q0 31 -39 31 h-139v164z" />
<glyph unicode="&#x157;" horiz-adv-x="2248" d="M82 0v1679h1749q141 0 238.5 -97t97.5 -239v-335q0 -141 -97.5 -238.5t-238.5 -97.5h-336l672 -672h-631l-672 672h-151v-672h-631zM713 1008h755q68 -1 68 67v201q0 68 -68 67h-755v-335zM995 -41h144q199 0 198 -195q0 -195 -202 -194h-140v164h140q39 0 39 30 q0 31 -39 31h-140v164z" />
<glyph unicode="&#x158;" horiz-adv-x="2248" d="M143 0v1679h1749q141 0 238.5 -97t97.5 -239v-335q0 -141 -97.5 -238.5t-238.5 -97.5h-336l672 -672h-631l-672 672h-151v-672h-631zM774 1008h755q68 -1 68 67v201q0 68 -68 67h-755v-335zM879 2200h205l133 -187l154 187h204l-272 -390h-168z" />
<glyph unicode="&#x159;" horiz-adv-x="2248" d="M82 0v1679h1749q141 0 238.5 -97t97.5 -239v-335q0 -141 -97.5 -238.5t-238.5 -97.5h-336l672 -672h-631l-672 672h-151v-672h-631zM713 1008h755q68 -1 68 67v201q0 68 -68 67h-755v-335zM817 2200h205l133 -187l154 187h204l-272 -390h-168z" />
<glyph unicode="&#x15a;" d="M143 0v336h1407q68 0 67 67v201q0 68 -67 68h-1071q-141 0 -238.5 97t-97.5 239v335q0 141 97 238.5t239 97.5h1769v-336h-1407q-68 0 -67 -67v-201q0 -68 67 -67h1071q141 0 238.5 -97.5t97.5 -238.5v-336q0 -141 -97 -238.5t-239 -97.5h-1769zM909 1792v207l655 203 v-205z" />
<glyph unicode="&#x15b;" d="M82 0v336h1407q68 0 67 67v201q0 68 -67 68h-1071q-141 0 -238.5 97t-97.5 239v335q0 141 97 238.5t239 97.5h1769v-336h-1407q-68 0 -67 -67v-201q0 -68 67 -67h1071q141 0 238.5 -97.5t97.5 -238.5v-336q0 -141 -97 -238.5t-239 -97.5h-1769zM848 1792v207l655 203 v-205z" />
<glyph unicode="&#x15e;" d="M143 0v336h1407q68 0 67 67v201q0 68 -67 68h-1071q-141 0 -238.5 97t-97.5 239v335q0 141 97 238.5t239 97.5h1769v-336h-1407q-68 0 -67 -67v-201q0 -68 67 -67h1071q141 0 238.5 -97.5t97.5 -238.5v-336q0 -141 -97 -238.5t-239 -97.5h-1769zM1067 -41h143 q199 0 199 -195t-203 -194h-139v164h139q39 0 39 30q0 31 -39 31h-139v164z" />
<glyph unicode="&#x15f;" d="M82 0v336h1407q68 0 67 67v201q0 68 -67 68h-1071q-141 0 -238.5 97t-97.5 239v335q0 141 97 238.5t239 97.5h1769v-336h-1407q-68 0 -67 -67v-201q0 -68 67 -67h1071q141 0 238.5 -97.5t97.5 -238.5v-336q0 -141 -97 -238.5t-239 -97.5h-1769zM1006 -41h143 q199 0 199 -195t-203 -194h-139v164h139q39 0 39 30q0 31 -39 31h-139v164z" />
<glyph unicode="&#x160;" d="M143 0v336h1407q68 0 67 67v201q0 68 -67 68h-1071q-141 0 -238.5 97t-97.5 239v335q0 141 97 238.5t239 97.5h1769v-336h-1407q-68 0 -67 -67v-201q0 -68 67 -67h1071q141 0 238.5 -97.5t97.5 -238.5v-336q0 -141 -97 -238.5t-239 -97.5h-1769zM889 2200h205l133 -187 l154 187h204l-272 -390h-168z" />
<glyph unicode="&#x161;" d="M82 0v336h1407q68 0 67 67v201q0 68 -67 68h-1071q-141 0 -238.5 97t-97.5 239v335q0 141 97 238.5t239 97.5h1769v-336h-1407q-68 0 -67 -67v-201q0 -68 67 -67h1071q141 0 238.5 -97.5t97.5 -238.5v-336q0 -141 -97 -238.5t-239 -97.5h-1769zM827 2200h205l133 -187 l154 187h205l-273 -390h-168z" />
<glyph unicode="&#x162;" d="M82 1343v336h2105v-336h-757v-1343h-590v1343h-758zM1006 -61h143q199 0 199 -195t-203 -194h-139v164h139q39 0 39 30q0 31 -39 31h-139v164z" />
<glyph unicode="&#x163;" d="M82 1343v336h2105v-336h-757v-1343h-590v1343h-758zM1006 -61h143q199 0 199 -195t-203 -195h-139v164h139q39 0 39 31t-39 31h-139v164z" />
<glyph unicode="&#x164;" d="M102 1343v336h2105v-336h-757v-1343h-590v1343h-758zM848 2200h205l133 -187l154 187h204l-272 -390h-168z" />
<glyph unicode="&#x165;" d="M82 1343v336h2105v-336h-757v-1343h-590v1343h-758zM827 2200h205l133 -187l154 187h205l-273 -390h-168z" />
<glyph unicode="&#x16a;" d="M143 336v1343h631v-1276q0 -68 67 -67h709q68 0 67 67v1276h631v-1343q0 -141 -97 -238.5t-239 -97.5h-1433q-141 0 -238.5 97.5t-97.5 238.5zM940 1987v184h594v-184h-594z" />
<glyph unicode="&#x16b;" d="M82 336v1343h631v-1276q0 -68 67 -67h709q68 0 67 67v1276h631v-1343q0 -141 -97 -238.5t-239 -97.5h-1433q-141 0 -238.5 97.5t-97.5 238.5zM879 1987v184h594v-184h-594z" />
<glyph unicode="&#x16e;" d="M143 336v1343h631v-1276q0 -68 67 -67h709q68 0 67 67v1276h631v-1343q0 -141 -97 -238.5t-239 -97.5h-1433q-141 0 -238.5 97.5t-97.5 238.5zM1042 2001q0 195 195 194q197 0 197 -194q0 -197 -197 -197q-195 0 -195 197zM1188 2001q0 -55 49 -55q55 0 55 51 q0 53 -55 53q-49 0 -49 -49z" />
<glyph unicode="&#x16f;" d="M82 336v1343h631v-1276q0 -68 67 -67h709q68 0 67 67v1276h631v-1343q0 -141 -97 -238.5t-239 -97.5h-1433q-141 0 -238.5 97.5t-97.5 238.5zM981 2001q0 195 195 194q197 0 196 -194q0 -197 -196 -197q-195 0 -195 197zM1126 2001q1 -55 50 -55q55 0 55 51q0 53 -55 53 q-49 0 -50 -49z" />
<glyph unicode="&#x170;" d="M143 336v1343h631v-1276q0 -68 67 -67h709q68 0 67 67v1276h631v-1343q0 -141 -97 -238.5t-239 -97.5h-1433q-141 0 -238.5 97.5t-97.5 238.5zM883 1899l205 348h213l-205 -348h-213zM1174 1899l205 348h213l-205 -348h-213z" />
<glyph unicode="&#x171;" d="M82 336v1343h631v-1276q0 -68 67 -67h709q68 0 67 67v1276h631v-1343q0 -141 -97 -238.5t-239 -97.5h-1433q-141 0 -238.5 97.5t-97.5 238.5zM821 1898l205 349h213l-205 -349h-213zM1112 1898l205 349h213l-205 -349h-213z" />
<glyph unicode="&#x172;" d="M143 336v1343h631v-1276q0 -68 67 -67h709q68 0 67 67v1276h631v-1343q0 -141 -97 -238.5t-239 -97.5h-1433q-141 0 -238.5 97.5t-97.5 238.5zM1067 -256q0 86 44 140.5t137 54.5h161v-164h-139q-39 0 -39 -31t39 -30h139v-164h-139q-203 0 -203 194z" />
<glyph unicode="&#x173;" d="M82 336v1343h631v-1276q0 -68 67 -67h709q68 0 67 67v1276h631v-1343q0 -141 -97 -238.5t-239 -97.5h-1433q-141 0 -238.5 97.5t-97.5 238.5zM1006 -256q0 86 44 140.5t136 54.5h162v-164h-140q-39 0 -39 -31t39 -31h140v-164h-140q-203 0 -202 195z" />
<glyph unicode="&#x178;" horiz-adv-x="2353" d="M41 1679h631l484 -483l483 483h631l-840 -839v-840h-549v840zM817 1802v286h287v-286h-287zM1206 1802v286h287v-286h-287z" />
<glyph unicode="&#x179;" horiz-adv-x="2351" d="M143 0l1302 1343h-1302v336h2187l-1261 -1343h1261v-336h-2187zM909 1792v207l655 203v-205z" />
<glyph unicode="&#x17a;" horiz-adv-x="2351" d="M82 0l1302 1343h-1302v336h2187l-1261 -1343h1261v-336h-2187zM848 1792v207l655 203v-205z" />
<glyph unicode="&#x17b;" horiz-adv-x="2351" d="M143 0l1302 1343h-1302v336h2187l-1261 -1343h1261v-336h-2187zM1093 1939v287h287v-287h-287z" />
<glyph unicode="&#x17c;" horiz-adv-x="2351" d="M82 0l1302 1343h-1302v336h2187l-1261 -1343h1261v-336h-2187zM1032 1939v287h287v-287h-287z" />
<glyph unicode="&#x17d;" horiz-adv-x="2351" d="M143 0l1302 1343h-1302v336h2187l-1261 -1343h1261v-336h-2187zM889 2220h205l133 -187l154 187h204l-272 -390h-168z" />
<glyph unicode="&#x17e;" horiz-adv-x="2351" d="M82 0l1302 1343h-1302v336h2187l-1261 -1343h1261v-336h-2187zM827 2220h205l133 -186l154 186h205l-273 -389h-168z" />
<glyph unicode="&#x192;" horiz-adv-x="1345" d="M82 -348l41 225q182 8 219 172l283 1290q70 340 639 340l-41 -225q-223 0 -260 -172l-33 -115h184l-61 -245h-185l-188 -930q-70 -340 -598 -340z" />
<glyph unicode="&#x2c6;" horiz-adv-x="696" d="M0 1810l256 390h168l272 -390h-204l-154 187l-133 -187h-205z" />
<glyph unicode="&#x2c7;" horiz-adv-x="696" d="M0 2200h205l133 -187l154 187h204l-272 -390h-168z" />
<glyph unicode="&#x2d8;" horiz-adv-x="770" d="M0 2208h203q0 -228 182 -228q180 0 180 179v49h205q0 -430 -385 -430t-385 430z" />
<glyph unicode="&#x2d9;" horiz-adv-x="491" d="M102 1919v287h287v-287h-287z" />
<glyph unicode="&#x2da;" horiz-adv-x="595" d="M102 2001q0 195 195 194q197 0 197 -194q0 -197 -197 -197q-195 0 -195 197zM248 2001q0 -55 49 -55q55 0 55 51q0 53 -55 53q-49 0 -49 -49z" />
<glyph unicode="&#x2db;" horiz-adv-x="546" d="M102 -236q0 86 44 140.5t137 54.5h161v-164h-139q-39 0 -39 -31t39 -30h139v-164h-139q-203 0 -203 194z" />
<glyph unicode="&#x2dc;" horiz-adv-x="1024" d="M0 2011l102 100q49 35 93.5 48.5t87.5 13.5q55 0 120.5 -15.5t120.5 -33.5h-2q49 -12 100.5 -28.5t98.5 -16.5q31 0 65.5 22.5t81.5 77.5l156 -162l-102 -100q-49 -35 -93.5 -48.5t-87.5 -13.5q-59 0 -122.5 14.5t-118.5 35.5h2q-49 12 -101.5 27.5t-97.5 15.5 q-31 0 -65.5 -21.5t-81.5 -79.5z" />
<glyph unicode="&#x2dd;" horiz-adv-x="872" d="M82 1858l205 348h213l-205 -348h-213zM373 1858l205 348h213l-205 -348h-213z" />
<glyph unicode="&#x3bc;" horiz-adv-x="1474" d="M82 -348v1515h184v-860q0 -164 164 -164h410q160 0 164 152v872h184v-1167q0 -164 205 -164v-184q-385 0 -389 340q-35 -16 -76 -24.5t-88 -8.5h-410q-94 0 -164 35v-342h-184z" />
<glyph unicode="&#x2000;" horiz-adv-x="1123" />
<glyph unicode="&#x2001;" horiz-adv-x="2247" />
<glyph unicode="&#x2002;" horiz-adv-x="1123" />
<glyph unicode="&#x2003;" horiz-adv-x="2247" />
<glyph unicode="&#x2004;" horiz-adv-x="749" />
<glyph unicode="&#x2005;" horiz-adv-x="561" />
<glyph unicode="&#x2006;" horiz-adv-x="374" />
<glyph unicode="&#x2007;" horiz-adv-x="374" />
<glyph unicode="&#x2008;" horiz-adv-x="280" />
<glyph unicode="&#x2009;" horiz-adv-x="449" />
<glyph unicode="&#x200a;" horiz-adv-x="124" />
<glyph unicode="&#x2010;" horiz-adv-x="860" d="M82 471v246h696v-246h-696z" />
<glyph unicode="&#x2011;" horiz-adv-x="860" d="M82 471v246h696v-246h-696z" />
<glyph unicode="&#x2012;" horiz-adv-x="860" d="M82 471v246h696v-246h-696z" />
<glyph unicode="&#x2013;" horiz-adv-x="1052" d="M82 471v184h889v-184h-889z" />
<glyph unicode="&#x2014;" horiz-adv-x="1781" d="M82 573v185h1618v-185h-1618z" />
<glyph unicode="&#x2018;" horiz-adv-x="409" d="M82 1389v210l61 226h142l-37 -187h80v-249h-246z" />
<glyph unicode="&#x2019;" horiz-adv-x="409" d="M82 1430v249h246v-211l-62 -225h-141l37 187h-80z" />
<glyph unicode="&#x201a;" horiz-adv-x="409" d="M143 -41v250h246v-211l-62 -225h-141l37 186h-80z" />
<glyph unicode="&#x201c;" horiz-adv-x="759" d="M107 1389v210l61 226h142l-37 -187h80v-249h-246zM422 1389v210l61 226h142l-37 -187h80v-249h-246z" />
<glyph unicode="&#x201d;" horiz-adv-x="765" d="M98 1430v249h246v-211l-62 -225h-141l37 187h-80zM412 1430v249h246v-211l-62 -225h-141l37 187h-80z" />
<glyph unicode="&#x201e;" horiz-adv-x="751" d="M143 -41v250h246v-211l-62 -225h-141l37 186h-80zM463 -41v250h246v-211l-62 -225h-141l37 186h-80z" />
<glyph unicode="&#x2022;" horiz-adv-x="1101" d="M82 446l469 811l469 -811h-938z" />
<glyph unicode="&#x2026;" horiz-adv-x="1351" d="M102 -41v291h307v-291h-307zM553 -41v291h307v-291h-307zM1004 -41v291h307v-291h-307z" />
<glyph unicode="&#x202f;" horiz-adv-x="449" />
<glyph unicode="&#x2030;" horiz-adv-x="2457" d="M82 1331q0 348 348 348t348 -348t-348 -348t-348 348zM256 -41l956 1720h211l-958 -1720h-209zM266 1331q0 -164 164 -164t164 160q0 168 -164 168t-164 -164zM901 307q0 348 348 348t348 -348t-348 -348t-348 348zM1085 307q0 -164 164 -164t164 160q0 168 -164 168 t-164 -164zM1679 307q0 348 349 348q348 0 348 -348t-348 -348q-349 0 -349 348zM1864 307q0 -164 164 -164t163 160q0 168 -163 168q-164 0 -164 -164z" />
<glyph unicode="&#x2039;" horiz-adv-x="655" d="M82 481v168l491 367v-232l-297 -219l297 -225v-229z" />
<glyph unicode="&#x203a;" horiz-adv-x="655" d="M82 111v231l295 219l-295 225v230l491 -371v-168z" />
<glyph unicode="&#x205f;" horiz-adv-x="561" />
<glyph unicode="&#x20ac;" horiz-adv-x="1421" d="M82 621l31 149h116q-4 45 -4 100q0 23 2 45h-145l31 148h129q68 362 356 518q180 98 393 98q207 0 348 -90l-45 -205q-135 111 -307 111q-186 0 -311 -90q-76 -51 -137 -150q-61 -100 -72 -192h754l-29 -148h-743q-2 -23 -3 -45q0 -84 3 -100h712l-31 -149h-659 q47 -254 225 -361q127 -76 275 -76q207 0 323 109v-227q-139 -66 -305 -66q-502 0 -678 418q-35 84 -59 203h-170z" />
<glyph unicode="&#x2122;" horiz-adv-x="1765" d="M82 1487v192h676v-192h-236v-709h-198v709h-242zM860 778v901h178l234 -569l231 569h180v-901h-198v338l-139 -338h-150l-139 336v-336h-197z" />
<glyph unicode="&#x2215;" horiz-adv-x="1433" d="M61 -41l957 1720h354l-958 -1720h-353z" />
<glyph unicode="&#xe000;" horiz-adv-x="1679" d="M0 0v1679h1679v-1679h-1679z" />
<glyph unicode="&#xfb01;" horiz-adv-x="808" d="M82 -41v1372q0 344 383 348h262v-186h-262v2q-199 -2 -199 -164v-164h432v-1208h-184v1024h-248v-1024h-184z" />
<glyph unicode="&#xfb02;" horiz-adv-x="757" d="M82 -41v1372q0 348 410 350v-2h184v-1720h-184v1024h-226v-1024h-184zM266 1167h226v330q-225 -2 -226 -166v-164z" />
</font>
</defs>
</svg>
